<?xml version="1.0" encoding="utf-8"?>
<!-- Generator: Adobe Illustrator 16.0.4, SVG Export Plug-In . SVG Version: 6.00 Build 0)  -->
<!DOCTYPE svg PUBLIC "-//W3C//DTD SVG 1.1//EN" "http://www.w3.org/Graphics/SVG/1.1/DTD/svg11.dtd">
<svg version="1.1" id="Layer_1" xmlns="http://www.w3.org/2000/svg" xmlns:xlink="http://www.w3.org/1999/xlink" x="0px" y="0px"
	 width="48px" height="48px" viewBox="1 1 48 48" enable-background="new 1 1 48 48" xml:space="preserve">
<g>
	<path d="M41.574,18.795c-1.104,0-2,0.896-2,2v22h-28v-22c0-1.104-0.896-2-2-2s-2,0.896-2,2v24c0,1.105,0.896,2,2,2h32
		c1.104,0,2-0.895,2-2v-24C43.574,19.691,42.68,18.795,41.574,18.795z"/>
	<path d="M21.044,13.652l2.53-2.742v22.385h4V10.91l2.529,2.742c0.396,0.428,0.933,0.643,1.472,0.643
		c0.483,0,0.971-0.174,1.354-0.529c0.812-0.75,0.862-2.016,0.113-2.826l-7.47-8.092l-7.47,8.092
		c-0.749,0.811-0.698,2.076,0.113,2.826C19.028,14.514,20.293,14.463,21.044,13.652z"/>
</g>
</svg>
