<?xml version="1.0" encoding="utf-8"?>
<!-- Generator: Adobe Illustrator 16.0.4, SVG Export Plug-In . SVG Version: 6.00 Build 0)  -->
<!DOCTYPE svg PUBLIC "-//W3C//DTD SVG 1.1//EN" "http://www.w3.org/Graphics/SVG/1.1/DTD/svg11.dtd">
<svg version="1.1" id="Layer_1" xmlns="http://www.w3.org/2000/svg" xmlns:xlink="http://www.w3.org/1999/xlink" x="0px" y="0px"
	 width="48px" height="48px" viewBox="0 0 48 48" enable-background="new 0 0 48 48" xml:space="preserve">
<g>
	<path d="M8.152,43.742c-0.369,0-0.728-0.094-1.061-0.283C6.409,43.072,6,42.349,6,41.564V5.084C6,4.3,6.409,3.575,7.092,3.189
		c0.682-0.388,1.512-0.377,2.186,0.025L39.74,21.444c0.658,0.393,1.059,1.103,1.059,1.869c0,0.766-0.402,1.476-1.06,1.869
		L9.272,43.434C8.929,43.64,8.54,43.742,8.152,43.742z M10,8.926V37.72l24.047-14.406L10,8.926z"/>
</g>
</svg>
